<?xml version="1.0" encoding="utf-8"?>
<!-- Generator: Adobe Illustrator 25.2.0, SVG Export Plug-In . SVG Version: 6.00 Build 0)  -->
<svg version="1.1" id="Layer_1" xmlns="http://www.w3.org/2000/svg" xmlns:xlink="http://www.w3.org/1999/xlink" x="0px" y="0px"
	 viewBox="0 0 743.3 140.8" style="enable-background:new 0 0 743.3 140.8;" xml:space="preserve">
<style type="text/css">
	.st0{fill:#3A6258;}
	.st1{fill:#3B6359;}
	.st2{fill:#3B6259;}
	.st3{fill:#3B6258;}
	.st4{fill:#85C3AB;}
	.st5{fill:#F9FAF9;}
</style>
<path class="st0" d="M339,51.7v-2.8c0-11.2,0-22.5,0-33.7c0-2.1,0.3-2.9,2.7-2.8c6.2,0.2,12.5,0.2,18.7,0c2.2-0.1,2.7,0.5,2.7,2.7
	C363,49.8,363,84.4,363.1,119c0,5.6,0,11.2,0,16.7c0,1.6-0.4,2.1-2,2.1c-6.8-0.1-13.5-0.1-20.2,0c-1.4,0-1.9-0.4-1.8-1.8
	c0.1-2.6,0-5.2,0-7.7c-0.7-0.4-0.9,0.2-1.2,0.5c-9.2,9.2-20.5,11.5-32.9,10.1c-22-2.5-34.2-21-37.2-37.3c-3.2-16.7-0.5-32.3,10.3-46
	c12.5-15.8,35.2-20.6,52.4-11C333.4,46.7,336.4,49.1,339,51.7z M291.4,89.8c-0.2,4.5,0.7,9,2.6,13.1c3.7,7.9,9.7,12.9,18.5,13.8
	c9,0.9,16.7-1.7,21.6-9.8c6.1-10,6.7-20.7,1.8-31.2c-6.3-13.6-24.2-17.6-35.2-8.1C294,73.3,291.6,81.1,291.4,89.8z"/>
<path class="st1" d="M708.2,99.1c-10.7,0-21.3,0.1-32-0.1c-2.5,0-2.6,0.7-1.8,2.7c3.4,8.6,9.4,13.9,18.7,14.9
	c9.5,1,17.2-2.2,22.2-10.7c0.9-1.6,1.7-1.7,3.3-1.2c6.4,2.3,12.9,4.5,19.4,6.5c2.1,0.7,2,1.5,1.2,3.1c-7.4,14-19,22-34.5,24.3
	c-10.6,1.6-21,0.9-30.8-3.8c-13.5-6.4-21.7-17.4-25-31.8c-3.8-16.4-1.6-31.9,8.9-45.7c6.9-9.2,17.2-15.2,28.5-16.8
	c10.8-1.7,21.5-1.2,31.5,3.8c14.3,7.2,21.7,19.6,24.7,35c1,5.7,1.2,11.5,0.5,17.2c-0.2,1.8-0.7,2.5-2.8,2.5
	C729.5,99.1,718.9,99.1,708.2,99.1z M675.4,76.4h41.5c-3.1-8.5-11.3-14.1-20.4-14C686.2,62.5,678.4,67.7,675.4,76.4z"/>
<path class="st1" d="M450.8,128c-0.4,0.2-0.7,0.4-1.1,0.7c-12.5,11.9-27.2,13.2-42.7,7.9c-10.1-3.4-16.9-11-22-20.1
	c-11.6-20.5-7.9-49,8.3-64.8c12.4-12,31.8-15.3,47-7.9c3.9,2,7.4,4.6,10.5,7.8c0-3,0.1-5.4,0-7.7c-0.1-1.9,0.3-2.6,2.4-2.6
	c6.5,0.2,13,0.1,19.5,0c1.7,0,2.3,0.4,2.3,2.2c-0.1,30.7-0.1,61.5,0,92.2c0,1.6-0.4,2.2-2.1,2.1c-6.7-0.1-13.3-0.1-20,0
	c-1.6,0-2.2-0.4-2.1-2.1C450.9,133.3,450.8,130.8,450.8,128z M425.8,116.8c9.2,0.1,15.8-3,20.1-10c6.2-10.2,6.8-21,1.6-31.7
	c-4.1-8.5-11.4-12.8-21-12.7c-10,0.1-16.7,5.1-20.7,14.2c-2.4,5.6-3.2,11.8-2.4,17.8C404.9,107.5,414.6,116.8,425.8,116.8
	L425.8,116.8z"/>
<path class="st1" d="M515.9,47.4c4.4-3.2,8.7-5.6,13.6-6.7c13.8-3.2,28.2,2.3,36.2,14c5.2,7.2,8.1,15.9,8.2,24.8
	c0.2,18.8,0,37.7,0.1,56.5c0,1.8-0.7,2-2.2,2c-6.9-0.1-13.8-0.1-20.7,0c-1.8,0-2.2-0.6-2.2-2.2c0-18.3,0-36.5,0-54.8
	c0-5.3-1.3-10.1-5.1-14.2c-6-6.6-18.4-5.4-23.5,1.3c-3,3.9-4.5,8.6-4.4,13.5c0,17.8,0,35.7,0.1,53.5c0,2.3-0.6,2.9-2.9,2.9
	c-6.4-0.2-12.8-0.1-19.2,0c-1.6,0-2.3-0.3-2.3-2.1c0.1-30.7,0.1-61.5,0-92.2c0-1.8,0.6-2.2,2.3-2.2c6.5,0.1,13,0.1,19.5,0
	c2.1,0,2.9,0.5,2.6,2.6C515.9,45.1,515.9,46.3,515.9,47.4z"/>
<path class="st1" d="M180.4,101.5c0,11.3,0,22.6,0,34c0,1.8-0.4,2.4-2.3,2.4c-6.8-0.1-13.7-0.1-20.5,0c-2,0-2.3-0.7-2.3-2.4
	c0.1-22.6,0-45.1,0.1-67.7c0-2.5-0.7-3.2-3.1-3s-4.8,0-7.2,0.1c-1.3,0-1.7-0.3-1.7-1.7c0.1-6.7,0.1-13.5,0-20.2
	c0-1.4,0.6-1.7,1.8-1.6c2.7,0.1,5.5-0.1,8.2,0c1.6,0.1,2-0.5,1.9-2c-0.1-6,0-12,1.8-17.8c3.2-10.4,11.3-15.6,21.2-18.1
	c13.4-3.7,27.5,2.6,33.8,14.9c1,1.9,0.9,2.6-1.3,3.3c-6,1.8-11.8,3.9-17.7,5.9c-1.1,0.6-2.5,0.2-3.1-0.8c-1.4-2-3.9-2.8-6.2-2
	c-2.6,0.8-3.3,2.8-3.3,5.3c-0.1,3.2-0.1,6.3-0.2,9.5c-0.1,1.6,0.5,1.9,2,1.9c7.6-0.1,15.2,0,22.7-0.1c1.8,0,2.4,0.3,2.4,2.3
	c-0.1,6.2-0.1,12.5,0,18.7c0,1.9-0.4,2.6-2.4,2.5c-7.5-0.1-15,0-22.5-0.1c-1.8,0-2.2,0.5-2.2,2.2C180.5,78.5,180.4,90,180.4,101.5z"
	/>
<path class="st2" d="M653.1,140.8c-9.7-0.4-18.6,0-27.4-0.9c-16.4-1.7-28.9-15.4-29.2-31.8c-0.1-13.4-0.1-26.8,0-40.2
	c0-2.1-0.4-3-2.7-2.8c-2.9,0.2-5.8,0-8.7,0.1c-1.3,0-1.8-0.4-1.8-1.7c0.1-6.8,0-13.5,0-20.2c0-1.2,0.4-1.6,1.6-1.6
	c3.2,0,6.3-0.1,9.5,0c1.7,0.1,2.1-0.5,2.1-2.1c-0.1-8.2,0-16.3-0.1-24.5c0-2,0.4-2.7,2.5-2.7c6.7,0.2,13.3,0.2,20,0
	c2.2,0,2.6,0.6,2.6,2.7c-0.1,8,0,16-0.1,24c0,2,0.4,2.8,2.5,2.7c3.7-0.2,7.5,0,11.2-0.1c1.3,0,1.8,0.3,1.7,1.7c0,6.7-0.1,13.3,0,20
	c0,1.4-0.5,1.8-1.9,1.8c-3.8-0.1-7.7,0-11.5,0c-1.5,0-2.2,0.2-2.2,2c0.1,13.6,0,27.2,0.1,40.7c0,4.9,3,8.3,7.9,8.7
	c2.3,0.2,3.3,1.1,4.3,3.2c3.7,8.4,10,15.5,18,20.1C652,139.9,652.2,140.1,653.1,140.8z"/>
<path class="st3" d="M0,88.3c0-14.8,0-29.7,0-44.5C0,41.7,0.3,41,2.7,41c29.8,0.1,59.5,0.1,89.2,0c2.2,0,2.8,0.5,2.7,2.7
	c-0.2,4.5-0.2,9,0,13.5c0.1,1.9-0.6,2.3-2.4,2.3c-23.5-0.1-47-0.1-70.5,0c-3.8,0-3.3-0.5-3.3,3.3c0,23.3,0,46.7,0.1,70
	c0,2.5-0.7,3.1-3,3c-4.4-0.2-8.8-0.1-13.2,0c-1.8,0.1-2.2-0.5-2.2-2.2C0.1,118.4,0,103.3,0,88.3z"/>
<path class="st0" d="M227.5,89.7c0-15.3,0-30.7,0-46c0-1.9,0.4-2.4,2.3-2.4c6.4,0.1,12.8,0.2,19.2,0c2.2,0,2.8,0.5,2.8,2.8
	c-0.1,27.7,0,55.3,0,83c0,2.9-0.1,5.8,0,8.7c0.1,1.7-0.5,2.1-2.1,2.1c-6.7-0.1-13.3-0.1-20,0c-1.8,0-2.2-0.4-2.2-2.2
	C227.5,120.3,227.5,105,227.5,89.7z"/>
<path class="st4" d="M38.7,107.8c0-8.6,0-17.2,0-25.7c0-1.7,0.5-2.3,2.2-2.3c17.2,0.1,34.3,0.1,51.5,0c1.7,0,2.3,0.4,2.3,2.2
	c-0.1,4.7-0.1,9.3,0,14c0,1.9-0.6,2.4-2.4,2.3c-10.7-0.1-21.5,0-32.2-0.1c-2.4,0-2.9,0.8-2.9,3c0.1,10.7,0,21.3,0.1,32
	c0,1.9-0.4,2.6-2.5,2.6c-4.4-0.2-8.8-0.2-13.2,0c-2.2,0.1-2.9-0.5-2.9-2.8C38.7,124.6,38.7,116.2,38.7,107.8z"/>
<path class="st1" d="M225.4,15.1c0-8.3,6.7-15,15-15c8.3,0,15,6.7,15,15c0,8.2-6.6,14.9-14.9,15c-8.3,0.1-15.1-6.6-15.1-14.9
	C225.4,15.2,225.4,15.1,225.4,15.1z"/>
<path class="st5" d="M675.4,76.4c3-8.7,10.9-13.8,21.1-14c9.1-0.1,17.3,5.5,20.4,14H675.4z"/>
</svg>
